<svg width="64" height="64" viewBox="0 0 64 64" fill="none" xmlns="http://www.w3.org/2000/svg" class="w-6 h-6"><title>Base Sepolia-icon</title><path d="M32 64C38.329 64 44.5158 62.1232 49.7782 58.607C55.0406 55.0908 59.1422 50.0932 61.5642 44.2458C63.9862 38.3986 64.6198 31.9646 63.3852 25.7572C62.1504 19.5497 59.1026 13.8479 54.6274 9.3726C50.1522 4.89732 44.4502 1.84961 38.2428 0.614886C32.0354 -0.619842 25.6014 0.0138655 19.7541 2.43586C13.9069 4.85788 8.90918 8.9594 5.39298 14.2218C1.87677 19.4841 0 25.671 0 32C0 40.487 3.37142 48.6262 9.37258 54.6274C15.3737 60.6286 23.513 64 32 64Z" fill="#0052FF"></path><path d="M31.9248 54.5352C44.3706 54.5352 54.46 44.446 54.46 32C54.46 19.5542 44.3706 9.46484 31.9248 9.46484C20.1176 9.46484 10.4312 18.5452 9.46818 30.1036H42.9088V33.8562H9.46484C10.4087 45.4338 20.1038 54.5352 31.9248 54.5352Z" fill="white"></path></svg>