<svg width="33" height="32" viewBox="0 0 33 32" fill="none" xmlns="http://www.w3.org/2000/svg" class="w-6 h-6"><title>EVM on Flow Testnet-icon</title><g id="Chain" data-testid="iconic-flow" clip-path="url(#clip0_2108_53664)"><path id="circle20" d="M16.25 32C25.0866 32 32.25 24.8366 32.25 16C32.25 7.16344 25.0866 0 16.25 0C7.41344 0 0.25 7.16344 0.25 16C0.25 24.8366 7.41344 32 16.25 32Z" fill="#00EF8B"></path><path id="rect22" d="M23.2581 13.504H18.7461V18.016H23.2581V13.504Z" fill="white"></path><path id="path24" d="M14.2341 19.712C14.2341 20.64 13.4661 21.408 12.5381 21.408C11.6101 21.408 10.8421 20.64 10.8421 19.712C10.8421 18.784 11.6101 18.016 12.5381 18.016H14.2341V13.504H12.5381C9.11408 13.504 6.33008 16.288 6.33008 19.712C6.33008 23.136 9.11408 25.92 12.5381 25.92C15.9621 25.92 18.7461 23.136 18.7461 19.712V18.016H14.2341V19.712Z" fill="white"></path><path id="path26" d="M20.4424 11.232H25.5304V6.72H20.4424C17.0184 6.72 14.2344 9.504 14.2344 12.928V13.504H18.7464V12.928C18.7464 12 19.5144 11.232 20.4424 11.232Z" fill="white"></path><path id="polygon28" d="M18.7464 13.504H14.2344V18.016H18.7464V13.504Z" fill="#16FF99"></path></g><defs><clipPath id="clip0_2108_53664"><rect width="32" height="32" fill="white" transform="translate(0.25)"></rect></clipPath></defs></svg>