<svg width="25" height="26" viewBox="0 0 25 26" fill="none" xmlns="http://www.w3.org/2000/svg" class="w-6 h-6"><title>Polygon Amoy-icon</title><g clip-path="url(#clip0_3051_84147)"><g clip-path="url(#clip1_3051_84147)"><path d="M12.1812 25.1002C18.8585 25.1002 24.2716 19.6871 24.2716 13.0098C24.2716 6.33248 18.8585 0.919434 12.1812 0.919434C5.50387 0.919434 0.0908203 6.33248 0.0908203 13.0098C0.0908203 19.6871 5.50387 25.1002 12.1812 25.1002Z" fill="#8247E5"></path><path d="M16.1829 10.423C15.8929 10.2543 15.5159 10.2543 15.1969 10.423L12.935 11.7164L11.398 12.56L9.13613 13.8533C8.84613 14.022 8.46915 14.022 8.15015 13.8533L6.3522 12.8411C6.06222 12.6724 5.85923 12.3631 5.85923 12.0257V10.0294C5.85923 9.692 6.03322 9.38271 6.3522 9.21401L8.12115 8.22989C8.41113 8.06119 8.78813 8.06119 9.10713 8.22989L10.8761 9.21401C11.1661 9.38271 11.3691 9.692 11.3691 10.0294V11.3228L12.906 10.4511V9.15776C12.906 8.82036 12.732 8.51106 12.413 8.34236L9.13613 6.48663C8.84613 6.31793 8.46915 6.31793 8.15015 6.48663L4.81526 8.34236C4.49625 8.51106 4.32227 8.82036 4.32227 9.15776V12.8973C4.32227 13.2347 4.49625 13.544 4.81526 13.7127L8.15015 15.5685C8.44015 15.7372 8.81713 15.7372 9.13613 15.5685L11.398 14.3032L12.935 13.4316L15.1969 12.1663C15.4869 11.9976 15.8639 11.9976 16.1829 12.1663L17.9518 13.1504C18.2418 13.3191 18.4448 13.6284 18.4448 13.9658V15.9621C18.4448 16.2995 18.2708 16.6088 17.9518 16.7775L16.1829 17.7898C15.8929 17.9585 15.5159 17.9585 15.1969 17.7898L13.428 16.8056C13.138 16.6369 12.935 16.3276 12.935 15.9902V14.6969L11.398 15.5685V16.8619C11.398 17.1993 11.572 17.5086 11.891 17.6773L15.2259 19.533C15.5159 19.7017 15.8929 19.7017 16.2119 19.533L19.5468 17.6773C19.8368 17.5086 20.0398 17.1993 20.0398 16.8619V13.1223C20.0398 12.7849 19.8658 12.4756 19.5468 12.3069L16.1829 10.423Z" fill="white"></path></g></g><defs><clipPath id="clip0_3051_84147"><rect width="24.1808" height="24.1808" fill="white" transform="translate(0.0908203 0.919434)"></rect></clipPath><clipPath id="clip1_3051_84147"><rect width="24.1808" height="24.1808" fill="white" transform="translate(0.0908203 0.919434)"></rect></clipPath></defs></svg>