<svg width="64" height="64" viewBox="0 0 64 64" fill="none" xmlns="http://www.w3.org/2000/svg" class="w-6 h-6"><title>Scroll Sepolia-icon</title><path d="M56.3957 42.1563V6.71896C56.3485 3.75379 54.0424 1.36719 51.148 1.36719H15.0489C7.25965 1.48772 1 8.02075 1 16.0243C1 18.7243 1.70598 21.0386 2.78848 23.0636C3.70624 24.7511 5.14173 26.3421 6.55368 27.5235C6.95373 27.8608 6.76549 27.7163 7.98917 28.4877C9.68352 29.5483 11.6132 30.0787 11.6132 30.0787L11.5897 51.2688C11.6367 52.2813 11.7309 53.2456 11.9897 54.1376C12.7898 57.1269 14.8136 59.4171 17.5669 60.5259C18.72 60.984 20.0143 61.2973 21.4027 61.3216L50.2301 61.4179C55.972 61.4179 60.6315 56.6448 60.6315 50.7384C60.6549 47.2429 58.9608 44.1091 56.3957 42.1563Z" fill="#FFEEDA"></path><path d="M57.1013 51.0037C56.9837 54.7885 53.948 57.8258 50.2298 57.8258L30.392 57.7536C31.9685 55.8733 32.9333 53.4384 32.9333 50.7866C32.9333 46.6162 30.5096 43.7474 30.5096 43.7474H50.2533C54.0421 43.7474 57.1248 46.9053 57.1248 50.7866L57.1013 51.0037Z" fill="#EBC28E"></path><path d="M8.43629 24.5342C6.15363 22.3164 4.55341 19.4476 4.55341 16.0485V15.6869C4.74168 9.8771 9.40112 5.20033 15.0725 5.03158H51.1715C52.1128 5.07979 52.8659 5.75481 52.8659 6.74318V38.0341C53.6893 38.1789 54.0893 38.2994 54.8896 38.5888C55.5251 38.8298 56.3957 39.336 56.3957 39.336V6.74318C56.3485 3.77801 54.0424 1.39142 51.148 1.39142H15.0489C7.25965 1.51195 1 8.04497 1 16.0485C1 20.7012 3.07087 24.6789 6.45955 27.4752C6.69488 27.6682 6.90667 27.9093 7.51853 27.9093C8.57749 27.9093 9.33053 27.0413 9.28347 26.1012C9.25992 25.3056 8.93048 25.0164 8.43629 24.5342Z" fill="#101010"></path><path d="M50.2302 40.0832H21.9206C20.0144 40.1072 18.4848 41.6744 18.4848 43.6269V47.7973C18.5319 49.7261 20.1321 51.3653 22.0383 51.3653H24.1326V47.7973H22.0383V43.7235C22.0383 43.7235 22.556 43.7235 23.1913 43.7235C26.7683 43.7235 29.404 47.1224 29.404 50.7627C29.404 53.9931 26.5329 58.1152 21.7323 57.7779C17.4729 57.4885 15.1667 53.6072 15.1667 50.7627V15.4217C15.1667 13.8306 13.896 12.5288 12.3428 12.5288H9.51892V16.1449H11.6133V50.7867C11.4957 57.8261 16.5081 61.3699 21.7323 61.3699L50.2539 61.4661C55.9958 61.4661 60.6552 56.6931 60.6552 50.7867C60.6552 44.8805 55.9723 40.0832 50.2302 40.0832ZM57.1016 51.0037C56.984 54.7885 53.9483 57.8261 50.2302 57.8261L30.3923 57.7536C31.9691 55.8733 32.9339 53.4384 32.9339 50.7867C32.9339 46.6163 30.5099 43.7475 30.5099 43.7475H50.2539C54.0424 43.7475 57.1254 46.9056 57.1254 50.7867L57.1016 51.0037Z" fill="#101010"></path><path d="M42.6051 16.7962H21.2611V13.1802H42.6051C43.5699 13.1802 44.3702 13.9757 44.3702 14.9882C44.3702 15.9766 43.5936 16.7962 42.6051 16.7962Z" fill="#101010"></path><path d="M42.6051 33.8152H21.2611V30.1989H42.6051C43.5699 30.1989 44.3702 30.9946 44.3702 32.0072C44.3702 32.9954 43.5936 33.8152 42.6051 33.8152Z" fill="#101010"></path><path d="M46.3704 25.3057H21.2611V21.6896H46.3467C47.3118 21.6896 48.1118 22.4852 48.1118 23.4977C48.1352 24.486 47.3352 25.3057 46.3704 25.3057Z" fill="#101010"></path></svg>