<svg width="64" height="64" viewBox="0 0 64 64" fill="none" xmlns="http://www.w3.org/2000/svg" class="w-6 h-6"><title>Sepolia-icon</title><g clip-path="url(#clip0_2440_18)"><path d="M32 64C49.6731 64 64 49.6731 64 32C64 14.3269 49.6731 0 32 0C14.3269 0 0 14.3269 0 32C0 49.6731 14.3269 64 32 64Z" fill="#DD8500"></path><path d="M32.429 49.064C30.1103 49.064 28.0893 48.6253 26.366 47.748C24.674 46.8707 23.358 45.6487 22.418 44.082C21.5093 42.5153 21.0393 40.6823 21.008 38.583H25.144C25.1753 40.463 25.802 42.0923 27.024 43.471C28.2773 44.8183 30.079 45.492 32.429 45.492C34.591 45.492 36.2517 44.975 37.411 43.941C38.6017 42.8757 39.197 41.6067 39.197 40.134C39.197 38.912 38.915 37.8937 38.351 37.079C37.787 36.233 36.8627 35.4967 35.578 34.87C34.3247 34.212 32.6327 33.5383 30.502 32.849C27.494 31.9403 25.3007 30.7027 23.922 29.136C22.5433 27.5693 21.854 25.6267 21.854 23.308C21.854 21.7413 22.2613 20.3313 23.076 19.078C23.8907 17.8247 25.0657 16.8377 26.601 16.117C28.1363 15.3963 30.0007 15.036 32.194 15.036C34.262 15.036 36.0637 15.4277 37.599 16.211C39.1657 16.963 40.372 18.0283 41.218 19.407C42.0953 20.7857 42.534 22.368 42.534 24.154H38.398C38.398 23.2767 38.163 22.415 37.693 21.569C37.223 20.723 36.518 20.018 35.578 19.454C34.638 18.89 33.4473 18.608 32.006 18.608C30.2827 18.608 28.8413 19.031 27.682 19.877C26.5227 20.6917 25.943 21.8197 25.943 23.261C25.943 24.3577 26.1937 25.282 26.695 26.034C27.2277 26.786 28.0893 27.4753 29.28 28.102C30.4707 28.6973 32.0843 29.3397 34.121 30.029C36.0323 30.6557 37.6617 31.392 39.009 32.238C40.3877 33.0527 41.4373 34.071 42.158 35.293C42.91 36.515 43.286 38.0347 43.286 39.852C43.286 41.638 42.8317 43.2203 41.923 44.599C41.0143 45.9777 39.7453 47.0743 38.116 47.889C36.4867 48.6723 34.591 49.064 32.429 49.064Z" fill="white"></path></g><defs><clipPath id="clip0_2440_18"><rect width="64" height="64" fill="white"></rect></clipPath></defs></svg>